<?xml version="1.0" encoding="UTF-8"?>
<!DOCTYPE svg PUBLIC "-//W3C//DTD SVG 1.1//EN" "http://www.w3.org/Graphics/SVG/1.1/DTD/svg11.dtd">
<!-- Creator: CorelDRAW -->
<svg xmlns="http://www.w3.org/2000/svg" xml:space="preserve" width="150.711mm" height="61.0696mm" style="shape-rendering:geometricPrecision; text-rendering:geometricPrecision; image-rendering:optimizeQuality; fill-rule:evenodd; clip-rule:evenodd"
viewBox="0 0 104.713 57.2442"
 xmlns:xlink="http://www.w3.org/1999/xlink">
 <defs>
  <style type="text/css">
   <![CDATA[
    .fil3 {fill:white}
    .fil0 {fill:#0F6684}
    .fil1 {fill:#C5E3ED}
    .fil2 {fill:#F6A412}
    .fil5 {fill:#4D4948;fill-rule:nonzero}
    .fil4 {fill:#0F6684;fill-rule:nonzero}
   ]]>
  </style>
 </defs>
 <g id="Слой_x0020_1">
  <metadata id="CorelCorpID_0Corel-Layer"/>
  <g id="_117031648">
   <path id="_117572416" class="fil0" d="M36.2147 22.1283c0.364727,-0.206688 0.775947,-0.55398 0.980948,-0.773604 0.659902,-0.706583 0.965575,-1.55789 0.885993,-2.52562 -0.0974855,-1.18689 -0.713519,-2.21405 -1.655,-2.92841 -0.745296,-0.565322 -1.81145,-0.99079 -2.76015,-0.851217 -0.706301,0.10386 -1.26853,0.414876 -1.76627,0.918051 -0.184941,0.187003 -0.345136,0.386755 -0.512361,0.588756 -0.648091,0.781946 -0.745577,1.08518 -1.68828,0.846905 -2.34134,-0.591943 -10.6965,-2.72125 -12.1399,-3.32416 -1.90434,-0.795444 -1.90912,-1.83779 -1.90922,-1.84079 -0.00637405,-0.233497 0.177724,-0.428093 0.41122,-0.434467 0.23359,-0.00637405 0.428186,0.177724 0.43456,0.411314 0,0.0013123 -0.00478054,0.499332 1.38842,1.08125 1.12418,0.469618 6.76737,1.9424 10.1183,2.80037l0.198533 -0.652497c0.236496,-0.777166 0.845687,-1.68453 1.3752,-2.27975 1.42619,-1.60345 3.37159,-2.47351 5.47569,-2.77149 3.04183,-0.430998 6.18658,1.20835 8.35845,3.21955 4.17444,3.86577 5.43004,9.38579 3.81778,14.7766 -1.14461,3.82743 -3.6438,7.05833 -7.29379,8.78729 -1.66203,0.787196 -3.09029,1.14283 -4.92621,1.57017 -1.2974,0.302111 -2.85117,0.467462 -4.17369,0.459963 -0.873433,-0.00496801 -1.72868,-0.072458 -2.51663,-0.48246 -0.622876,-0.324233 -1.18923,-0.850749 -1.73609,-1.29084 -0.207063,-0.166569 -0.537576,-0.390598 -0.821503,-0.303424 -0.446371,0.137042 -0.847562,0.8859 -1.02547,1.27828 -0.566916,1.25063 -0.539639,2.92616 -0.243808,4.24493 0.0334638,0.149134 0.151571,0.603192 0.312985,0.809411 0.131324,-0.0447121 0.276896,-0.106672 0.37157,-0.145666 0.334544,-0.137323 0.665057,-0.288613 0.993321,-0.440372 0.384787,-0.177911 0.767792,-0.360321 1.15427,-0.534389 0.264242,-0.119139 0.638718,-0.296393 0.923113,-0.336981 0.579476,-0.082769 1.26094,-0.168069 1.66775,0.366414 0.335106,0.440091 0.215687,0.946547 0.0302768,1.41242 -0.333232,0.836407 -0.643217,1.69278 -0.90146,2.55534 -0.0762074,0.254681 -0.15129,0.517704 -0.217843,0.783446 -0.437841,1.74752 -0.630656,3.58587 -0.945141,5.36892 -0.106953,0.607503 -0.302486,1.0774 -1.04094,1.0849 -1.32055,0.0135917 -2.85426,0.0307454 -4.24671,-0.0010311 -0.593443,-0.0200595 -0.809692,-0.552949 -1.0131,-1.00026 -0.169756,-0.373351 -0.329014,-0.753076 -0.487709,-1.1313 -0.137042,-0.326483 -0.272772,-0.653622 -0.411126,-0.979636 -0.0231528,-0.0545544 -0.0470555,-0.113046 -0.0716144,-0.172474 -0.147166,-0.00393691 -0.29555,-0.00412439 -0.426312,-0.00721768 -0.506081,-0.0116233 -1.01244,-0.0177161 -1.51862,-0.0226841 -0.829002,-0.00815504 -1.65838,-0.0126544 -2.48747,-0.0136855l-0.0328076 -9.37361e-005 -0.0295269 -0.00224967c-0.0362759,-0.0023434 -0.0934549,-0.00168725 -0.151103,0.00290582 0.00112483,0.14576 0.00309329,0.291707 0.00553043,0.437466 0,0 0.801443,2.92203 -0.363134,2.91838l-3.61278 -0.0111546c-0.613034,0.00412439 -0.863309,-0.0194971 -1.41841,-0.307548 -0.219811,-0.113983 -0.435217,-0.236871 -0.642748,-0.363227 -4.49015,-2.734 -7.03733,-8.20528 -6.61608,-13.397 0.0372132,-0.457057 0.0981417,-0.908959 0.182317,-1.35392 -0.156633,0.112015 -0.347386,0.247276 -0.579476,0.410658 -0.844187,0.593912 -1.78727,2.19239 -1.57299,3.28489 0.0362759,0.185035 0.146041,0.0948609 0.25215,0.261617 0.145478,0.22881 0.322358,0.61369 0.374382,1.14405 0.0520235,0.530452 -0.218405,0.800881 -0.218405,0.655309 0,-0.145666 -0.0936423,-0.436904 -0.0936423,-0.436904 0,0 -0.0935486,0.488834 -0.187191,0.780072 -0.0935486,0.291238 -0.114358,1.06081 -0.114358,1.06081 0,0 -0.0520235,-0.187191 -0.280833,-0.66562 -0.22881,-0.478429 -0.166382,-0.363977 -0.166382,-0.363977l-0.0936423 0.353572 -0.197596 -0.43681 -0.0728329 0.447215c0,0 -0.0831439,-0.260024 -0.208,-0.468024 -0.124763,-0.208 -0.411126,-0.571978 -0.322452,-1.21679 0.0887681,-0.644904 0.945516,-0.950296 0.945516,-0.950296 -0.0763949,-2.34425 0.976355,-3.62759 2.71047,-4.64622 0.461556,-1.80545 1.31512,-3.48417 2.52244,-4.94505 1.39667,-1.68997 3.28629,-3.09282 5.36386,-3.819l0.189909 -0.0663651c-0.505894,-1.49059 -1.21079,-2.8747 -1.06231,-4.53636 0.0882056,-0.987322 0.425562,-1.94999 0.998102,-2.76137 0.373163,-0.528859 0.836876,-0.979917 1.3708,-1.34521 2.38033,-1.6282 6.0157,-1.43604 8.40503,0.0745202 0.245495,0.155227 0.48799,0.317672 0.726642,0.486771 0.0354322,-0.201439 0.138073,-0.384505 0.279615,-0.543294 0.111077,-0.124388 0.242776,-0.235371 0.375975,-0.335294 0.340824,-0.255431 0.734516,-0.471492 1.12024,-0.650435 1.15352,-0.535233 2.45251,-0.826377 3.72292,-0.845781 2.01289,-0.0307454 3.92239,0.405783 5.64179,1.47109 1.12802,0.698896 2.03492,1.57561 2.88707,2.55881z"/>
   <path id="_117572344" class="fil1" d="M16.1777 49.3992c0,0 -1.06447,-0.0835188 -1.06447,0.584351 0,0.375694 0.00815504,0.831533 0.015279,1.15848 0.00496801,0.230122 0.0459307,0.862559 -0.405502,0.784102 -0.165257,-0.0286832 -0.370351,-0.449839 -0.831251,-0.566541 -0.478616,-0.121294 -1.11452,0.140229 -1.40529,0.531296 -0.317484,0.426968 -0.196658,0.925831 -0.301174,1.07525 -0.0500551,0.0715206 -0.793382,-0.148572 -1.81201,-0.768636 -4.21728,-2.56771 -6.60652,-7.73351 -6.21142,-12.6032 0.430155,-5.29628 4.17791,-8.94861 7.67727,-10.1717 0,0 0.811192,2.13118 0.811192,4.15579 0,2.02451 0.677993,4.36248 3.12001,5.94868 2.44201,1.5863 5.79223,0.730204 5.62529,-0.250744 -0.0991728,-0.582382 -0.52211,-0.267148 -1.23807,-0.0023434 -1.08574,0.401565 -1.93265,0.107047 -2.97293,-0.306986 -1.53512,-0.610878 -3.2713,-1.85654 -3.34516,-4.77257 -0.0650528,-2.56884 -0.681086,-3.8758 -1.09896,-5.31905 -0.448902,-1.55011 -1.35449,-3.14475 -1.20835,-4.78138 0.0745202,-0.834157 0.357603,-1.655 0.846156,-2.34734 1.86094,-2.63689 6.12415,-2.62602 8.62841,-1.04263 2.83374,1.79176 5.79326,4.96661 5.45685,8.4968 -0.0517423,0.542638 -0.0274647,0.751763 0.212593,0.766761 0.260774,0.0162163 0.645185,-0.745014 0.600754,-2.13306 -0.131418,-4.10545 -3.37,-6.19605 -4.25327,-7.19668 -0.0418063,-0.250463 1.94099,-1.64882 4.67527,-1.69053 4.41066,-0.0673025 6.65873,2.25941 8.24427,4.17435 0.333982,0.0417126 3.23511,-1.31493 2.98465,-4.3622 -0.250463,-3.04727 -3.25592,-4.86312 -5.38486,-4.55004 -1.43041,0.210344 -2.21077,1.08031 -2.6637,1.62838 -0.221123,0.267616 -0.52061,0.771917 -0.623345,0.771917 -0.313078,0 -1.49378,-0.38788 -1.49378,-0.38788 0,0 0.243433,-0.592974 0.4654,-1.01704 0.613878,-1.17254 2.25913,-3.44939 5.9439,-3.97141 2.46966,-0.349729 5.35205,0.862372 7.66255,3.00199 3.96316,3.67014 5.09081,8.86293 3.58119,13.9104 -1.05837,3.53919 -3.36503,6.61533 -6.84376,8.26321 -0.584444,0.276803 -1.20676,0.430811 -2.01973,0.447496 -1.43276,0.0294331 -3.77213,-0.339512 -5.17761,-1.42057 -1.89919,-1.46097 -2.12884,-2.10803 -2.12884,-2.10803 0,0 0.208656,1.39835 1.71143,2.85942 1.50278,1.46097 2.85942,1.73234 2.85942,1.73234 0,0 -1.93021,0.449371 -3.97638,0.437841 -2.04607,-0.0116233 -2.31791,-0.453495 -3.72526,-1.58583 -1.51112,-1.21594 -2.54559,-0.0527734 -3.15244,1.28578 -0.644248,1.42123 -0.63778,3.27139 -0.299018,4.78138 0.253181,1.12821 1.40079,1.16139 1.66485,1.26403 0.3756,0.145947 2.60071,-1.19495 3.03892,-1.25747 0.903335,-0.128981 1.06344,-0.0646779 0.789258,0.624188 -0.387505,0.972418 -1.18595,3.10145 -1.3737,4.57282 -0.250463,1.9619 -0.375694,2.17074 -0.563541,2.50463 -0.187847,0.333982 -0.563541,0.521829 -0.709582,0.521829 -0.146135,0 -0.751388,-0.87662 -1.81586,-0.605254 -1.06447,0.271272 -0.960139,2.23326 -1.1897,2.31669 -0.22956,0.0835188 -0.741077,-0.0533358 -0.876245,-0.0533358 -0.135261,0 -1.35842,-3.15562 -1.46238,-3.23886 -0.104047,-0.0831439 -4.98732,-0.0889555 -4.98732,-0.0889555z"/>
   <path id="_117572272" class="fil0" d="M28.6205 42.7907c-0.576102,0.586038 -1.88081,1.1164 -2.57952,1.23441 -0.47946,0.080988 -0.950203,0.145103 -1.41354,-0.0556792 -0.977948,-0.423593 -1.12277,-1.70731 -1.19617,-2.63436 -0.0847374,-1.07056 0.103297,-2.1863 0.514049,-3.17784 0.258149,-0.623157 0.765355,-1.58161 1.45928,-1.79401 0.677149,-0.207344 1.52546,0.359384 2.06144,0.72861 0.360415,0.248213 1.05753,0.746889 1.32177,1.0894 0.0888618,0.115483 0.156071,0.261524 0.206501,0.425937 0.317953,-0.209219 0.70677,-0.313828 1.11096,-0.269585 0.453401,0.0495864 0.84728,0.27774 1.11902,0.606566 0.0395566,-0.0685211 0.0801443,-0.12645 0.121482,-0.170787 0.522485,-0.561198 2.09819,-0.748857 2.84695,-0.748857 0.486303,0 0.960888,0.0150915 1.38448,0.290394 0.89368,0.580695 0.822628,1.8706 0.740421,2.7969 -0.0948609,1.06981 -0.466243,2.13849 -1.03644,3.04773 -0.358353,0.571509 -1.01825,1.43191 -1.73796,1.52574 -0.70049,0.0913927 -1.44438,-0.608816 -1.91118,-1.06203 -0.314016,-0.304736 -0.918332,-0.912708 -1.12165,-1.2944 -0.0377756,-0.0710519 -0.0672088,-0.150634 -0.0894242,-0.236684 -0.259836,0.11239 -0.550606,0.16132 -0.849811,0.128512 -0.366977,-0.040119 -0.694865,-0.197127 -0.950671,-0.429967z"/>
   <path id="_117572200" class="fil2" d="M31.967 39.3519c0.18616,-0.199845 1.2585,-0.478429 2.22576,-0.478429 0.967263,0 1.46641,0.0520235 1.27922,2.16333 -0.187191,2.11131 -1.56005,3.74419 -2.03848,3.80662 -0.478429,0.0623345 -2.02789,-1.63991 -2.17374,-1.91372 -0.249619,-0.468774 0.521173,-3.37787 0.707239,-3.57781zm-1.95402 -0.170318l9.37361e-005 0c0.462213,0.0505237 0.798913,0.469993 0.748295,0.932205l-0.165725 1.51468c-0.0506175,0.462119 -0.470086,0.798819 -0.932205,0.748201l-9.37361e-005 0c-0.462119,-0.0505237 -0.798819,-0.469993 -0.748295,-0.932205l0.165725 -1.51459c0.0506175,-0.462213 0.470086,-0.798913 0.932205,-0.748295zm-1.93378 2.93863c-0.150259,0.228154 -1.22597,0.906522 -2.17964,1.06775 -0.953765,0.161132 -1.4546,0.193096 -1.62192,-1.9199 -0.167319,-2.113 0.914302,-3.95182 1.37558,-4.09299 0.461369,-0.141354 2.27282,1.27903 2.46226,1.52462 0.324233,0.420594 0.113983,3.19246 -0.0362759,3.42052z"/>
   <path id="_117572128" class="fil0" d="M26.8977 16.5219l-8.1945 -2.2372c0.261524,-1.6161 0.56879,-3.22574 0.778009,-4.84878 0.114358,-0.887118 0.190097,-1.78183 0.231434,-2.67523 0.0270897,-0.586225 0.0271835,-1.1762 0.0173412,-1.76289 -0.0208094,-1.24153 -0.082394,-2.50538 -0.18241,-3.74401l-0.101235 -1.25381 12.6575 3.95379 -0.748951 0.965763c-0.593068,0.769667 -1.16008,1.83629 -1.57477,2.70532 -0.261899,0.548637 -0.499238,1.1133 -0.727298,1.67675 -0.424156,1.04741 -0.826846,2.11665 -1.19926,3.18384 -0.455276,1.30443 -0.677993,2.59874 -0.955827,4.03646z"/>
   <path id="_117572056" class="fil2" d="M27.0519 12.2057c0,0 1.08537,-3.10988 1.9619,-4.94664 0.87662,-1.83666 1.66981,-2.85942 1.66981,-2.85942l-10.2898 -3.21421c0,0 0.271272,3.36034 0.166944,5.61451 -0.104328,2.25407 -0.396504,3.79865 -0.396504,3.79865l6.88763 1.6071z"/>
   <polygon id="_117571984" class="fil3" points="26.7179,12.9779 26.2379,15.4618 19.6633,13.6667 20.0181,11.4753 "/>
   <path id="_117571912" class="fil4" d="M28.4223 26.2319c-0.127012,-0.263211 -0.0165913,-0.579664 0.246713,-0.70677 0.263211,-0.127106 0.579664,-0.0165913 0.70677,0.24662 0.525859,1.09034 1.236,1.56314 1.83704,1.60973 0.248119,0.0191222 0.471867,-0.0348698 0.644529,-0.146603 0.163569,-0.105922 0.285989,-0.266023 0.341668,-0.465493l0.000562416 -0.00196846 -0.000562416 -9.37361e-005c0.128981,-0.460432 -0.0643967,-1.12914 -0.803131,-1.9034 -0.201439,-0.21175 -0.193096,-0.546856 0.0186535,-0.748295 0.21175,-0.201439 0.546856,-0.193096 0.748295,0.0186535 1.03569,1.08565 1.27612,2.13287 1.05603,2.91903l-0.000562416 -0.000187472c-0.1287,0.458463 -0.409439,0.826096 -0.784665,1.06897 -0.366696,0.23734 -0.818691,0.35376 -1.29965,0.316547 -0.933424,-0.0722705 -1.99611,-0.722986 -2.71169,-2.20673z"/>
   <path id="_117571840" class="fil3" d="M13.0922 53.0286c0,0 -0.006749,-0.162257 0.0223092,-0.345324 0.0842687,-0.530452 0.331826,-0.553886 0.536452,-0.554636 0.516486,-0.00178099 0.722049,0.89996 0.67893,0.89996l-1.23769 0z"/>
   <path id="_117031408" class="fil3" d="M24.5472 52.8012c0,0 0.0382443,-1.24153 0.528296,-1.41879 0.490146,-0.177255 0.932768,0.145666 1.0371,0.834345 0.104328,0.688773 0.0920488,0.60741 0.0920488,0.60741l-1.65744 -0.0229653z"/>
   <path id="_117032080" class="fil4" d="M49.1851 46.3653c-0.338856,0.113046 -0.675181,0.198346 -1.00898,0.258618 -0.333794,0.0577414 -0.685211,0.0878307 -1.05444,0.0878307 -0.573946,0 -1.03419,-0.0978605 -1.38054,-0.293769 -0.346449,-0.195815 -0.594287,-0.489677 -0.743515,-0.8814l3.45914 0c0.139011,0 0.278209,-0.0100298 0.417313,-0.0350573 0.141541,-0.0251213 0.270522,-0.0703021 0.386849,-0.135636 0.118764,-0.065334 0.212312,-0.160664 0.28327,-0.281208 0.0732079,-0.120545 0.108734,-0.27624 0.111171,-0.466993 0,-0.560073 -0.0783634,-1.06475 -0.235184,-1.51674 -0.159258,-0.454526 -0.391911,-0.841188 -0.700396,-1.16514 -0.308485,-0.323858 -0.690366,-0.57254 -1.14545,-0.745858 -0.452651,-0.173131 -0.978605,-0.261055 -1.57533,-0.263586 -0.601786,0.00253087 -1.14039,0.0928924 -1.61826,0.273709 -0.47796,0.180817 -0.885056,0.434467 -1.22138,0.758325 -0.338856,0.323952 -0.596818,0.705645 -0.773791,1.14255 -0.179505,0.434373 -0.267991,0.91149 -0.270522,1.42629 0.00253087,0.6704 0.0986103,1.26056 0.285801,1.7703 0.187097,0.507206 0.454995,0.93408 0.804068,1.27556 0.346355,0.344105 0.761137,0.602629 1.23891,0.775947 0.480491,0.173224 1.01404,0.261149 1.60073,0.261149 0.283177,0 0.568884,-0.0175286 0.862184,-0.0527734 0.293394,-0.035151 0.576571,-0.0927987 0.847093,-0.170693 0.270522,-0.0778009 0.513299,-0.180817 0.728236,-0.311391 0.215031,-0.128043 0.384318,-0.283739 0.510862,-0.469524 0.12645,-0.185879 0.189534,-0.404377 0.192159,-0.652965l0 -0.587538zm-3.23164 -3.7666c0.227591,0.00253087 0.414688,0.0553043 0.558854,0.160757 0.146603,0.105453 0.2529,0.246057 0.323671,0.421812 0.0707707,0.175755 0.103672,0.374194 0.103672,0.592599 0,0.0427436 -0.00759262,0.0828627 -0.0278396,0.128043 -0.0176224,0.0427436 -0.0455557,0.0804255 -0.085956,0.110515 -0.0404002,0.030183 -0.0935486,0.0451808 -0.159258,0.0477117l-1.85101 0c0.0278396,-0.489583 0.134043,-0.856279 0.318609,-1.09727 0.184566,-0.24362 0.457713,-0.364165 0.819253,-0.364165zm7.28245 5.86085l0 -10.2452c-0.455182,-0.00253087 -0.8395,0.00253087 -1.15052,0.0101235 -0.311016,0.0100298 -0.563916,0.035151 -0.758512,0.0778009 -0.192253,0.0427436 -0.33895,0.113046 -0.442528,0.210906 -0.101141,0.0979542 -0.169475,0.236027 -0.207344,0.411876 -0.0354322,0.173224 -0.0531484,0.399222 -0.0506175,0.675462l0 8.859 2.60952 0zm8.16235 -2.09425c-0.338856,0.113046 -0.675087,0.198346 -1.00888,0.258618 -0.333888,0.0577414 -0.685304,0.0878307 -1.05444,0.0878307 -0.57404,0 -1.03419,-0.0978605 -1.38064,-0.293769 -0.346449,-0.195815 -0.594287,-0.489677 -0.743421,-0.8814l3.45914 0c0.139011,0 0.278209,-0.0100298 0.417219,-0.0350573 0.141541,-0.0251213 0.270522,-0.0703021 0.386849,-0.135636 0.118857,-0.065334 0.212312,-0.160664 0.28327,-0.281208 0.0733016,-0.120545 0.108734,-0.27624 0.111171,-0.466993 0,-0.560073 -0.0783634,-1.06475 -0.23509,-1.51674 -0.159351,-0.454526 -0.392004,-0.841188 -0.70049,-1.16514 -0.308392,-0.323858 -0.690272,-0.57254 -1.14536,-0.745858 -0.452651,-0.173131 -0.978605,-0.261055 -1.57542,-0.263586 -0.601692,0.00253087 -1.14039,0.0928924 -1.61826,0.273709 -0.47796,0.180817 -0.884962,0.434467 -1.22129,0.758325 -0.338856,0.323952 -0.596818,0.705645 -0.773791,1.14255 -0.179598,0.434373 -0.268085,0.91149 -0.270522,1.42629 0.00243714,0.6704 0.0986103,1.26056 0.285708,1.7703 0.187097,0.507206 0.455089,0.93408 0.804068,1.27556 0.346449,0.344105 0.761137,0.602629 1.239,0.775947 0.480491,0.173224 1.01394,0.261149 1.60064,0.261149 0.283177,0 0.568884,-0.0175286 0.862184,-0.0527734 0.293394,-0.035151 0.576571,-0.0927987 0.847093,-0.170693 0.270616,-0.0778009 0.513299,-0.180817 0.728329,-0.311391 0.214937,-0.128043 0.384318,-0.283739 0.510768,-0.469524 0.12645,-0.185879 0.189628,-0.404377 0.192159,-0.652965l0 -0.587538zm-3.23155 -3.7666c0.227591,0.00253087 0.414688,0.0553043 0.558761,0.160757 0.146697,0.105453 0.2529,0.246057 0.323764,0.421812 0.070677,0.175755 0.103578,0.374194 0.103578,0.592599 0,0.0427436 -0.00749889,0.0828627 -0.0277459,0.128043 -0.0177161,0.0427436 -0.0455557,0.0804255 -0.085956,0.110515 -0.040494,0.030183 -0.0936423,0.0451808 -0.159351,0.0477117l-1.85091 0c0.0278396,-0.489583 0.133949,-0.856279 0.318515,-1.09727 0.18466,-0.24362 0.457713,-0.364165 0.819347,-0.364165zm7.28245 8.34673l0 -3.05842c0.23509,0.248588 0.518267,0.429311 0.846999,0.547325 0.326202,0.118014 0.692897,0.175849 1.09493,0.175849 0.51836,-0.00506175 0.986197,-0.115483 1.40585,-0.333982 0.419844,-0.218499 0.781384,-0.519767 1.08228,-0.903991 0.300893,-0.38413 0.533546,-0.823565 0.695334,-1.32327 0.161882,-0.499707 0.242776,-1.03213 0.245307,-1.59708 0,-0.514799 -0.0530546,-0.986853 -0.164319,-1.41626 -0.108734,-0.429405 -0.278209,-0.800975 -0.505706,-1.1149 -0.230122,-0.313828 -0.523422,-0.559886 -0.877463,-0.730766 -0.356572,-0.173131 -0.781384,-0.261055 -1.27444,-0.263586 -0.541138,0.00253087 -1.0266,0.118014 -1.45647,0.346542 -0.429874,0.228435 -0.793945,0.554918 -1.09231,0.979261l0 -1.23535c-0.455182,-0.00262461 -0.839594,0.00243714 -1.15052,0.0100298 -0.31111,0.0100298 -0.563916,0.0350573 -0.758606,0.0778009 -0.192253,0.0426499 -0.338856,0.112952 -0.442528,0.210906 -0.101141,0.0979542 -0.169381,0.236027 -0.207344,0.411783 -0.0354322,0.173318 -0.0530546,0.399316 -0.0506175,0.675462l0 8.54264 2.60961 0zm2.67017 -6.38811c0,0.243526 -0.0303705,0.479647 -0.0935486,0.710613 -0.0606472,0.231059 -0.15429,0.436998 -0.275584,0.622782 -0.123919,0.185879 -0.275678,0.331451 -0.455182,0.441966 -0.182035,0.110421 -0.392004,0.165725 -0.632156,0.168256 -0.219999,-0.00253087 -0.402034,-0.0427436 -0.548731,-0.125606 -0.146697,-0.0828627 -0.263023,-0.190847 -0.35151,-0.326389 -0.085956,-0.135636 -0.146603,-0.28627 -0.184566,-0.449464 -0.0353385,-0.165819 -0.0531484,-0.331544 -0.0531484,-0.499707 0.00262461,-0.409345 0.0658965,-0.773416 0.189722,-1.08987 0.123919,-0.316359 0.298362,-0.564947 0.520891,-0.743233 0.222529,-0.180817 0.480397,-0.273709 0.776228,-0.27624 0.207344,0.00253087 0.384412,0.0451808 0.526047,0.130574 0.141635,0.0853936 0.255337,0.200876 0.341293,0.346542 0.0860497,0.148103 0.146697,0.313828 0.18466,0.502144 0.0378694,0.185879 0.0555855,0.381693 0.0555855,0.587631zm11.3635 2.57643l0 -3.70642c0.00262461,-0.808567 -0.189534,-1.42873 -0.576571,-1.85569 -0.384318,-0.42678 -0.970918,-0.642748 -1.75989,-0.645279 -0.52839,0 -1.01638,0.118014 -1.46659,0.354041 -0.450027,0.236121 -0.834439,0.59513 -1.15802,1.07731l0 -3.66114c-0.455182,-0.00253087 -0.8395,0.00253087 -1.15052,0.0100298 -0.311016,0.0100298 -0.563916,0.035151 -0.758606,0.0778947 -0.192159,0.0426499 -0.338856,0.112952 -0.442528,0.210812 -0.101141,0.0979542 -0.169381,0.236121 -0.207344,0.411876 -0.0354322,0.173224 -0.0530546,0.399222 -0.0505237,0.675462l0 8.37691 2.60952 0 0 -3.7666c0.00253087,-0.241089 0.040494,-0.451995 0.118857,-0.635343 0.0783634,-0.183254 0.182035,-0.333982 0.311016,-0.456963 0.131418,-0.123075 0.275584,-0.215968 0.434935,-0.27624 0.159164,-0.0628032 0.321046,-0.0928924 0.485365,-0.0928924 0.247932,0 0.442528,0.0477117 0.589225,0.140604 0.149134,0.0954233 0.2529,0.231059 0.318703,0.409252 0.0630844,0.180911 0.0959857,0.399316 0.0934549,0.655403l0 4.08296c0.455182,0.00253087 0.8395,-0.00243714 1.15052,-0.0100298 0.311016,-0.0100298 0.563916,-0.0350573 0.758606,-0.0778009 0.192159,-0.0426499 0.338856,-0.112952 0.442528,-0.210906 0.101141,-0.0979542 0.169381,-0.236027 0.207344,-0.411783 0.0353385,-0.175849 0.0531484,-0.399316 0.0505237,-0.675462zm0.940641 -0.753357c0,0.278677 0.0430249,0.54995 0.131512,0.813535 0.0884869,0.26368 0.222529,0.499707 0.402034,0.713144 0.179505,0.213437 0.404565,0.384224 0.675087,0.509737 0.273147,0.125513 0.594287,0.190847 0.960888,0.193378 0.485553,-0.00253087 0.933143,-0.100485 1.33771,-0.291238 0.407096,-0.193378 0.771167,-0.467087 1.08978,-0.823659l0.0606472 1.02444c0.389473,0.00253087 0.748483,-0.00243714 1.07721,-0.0149978 0.331263,-0.0125606 0.616971,-0.0477117 0.859747,-0.105453 0.242776,-0.0577414 0.424812,-0.153258 0.553793,-0.28627 0.12645,-0.133105 0.182035,-0.31889 0.164319,-0.557448l-0.257868 -3.61596c-0.0480866,-0.617721 -0.166944,-1.12493 -0.354041,-1.51918 -0.189628,-0.396691 -0.434935,-0.703114 -0.735828,-0.919082 -0.298362,-0.218405 -0.639749,-0.369039 -1.02163,-0.454432 -0.381787,-0.0828627 -0.79132,-0.125606 -1.22626,-0.120545 -0.24287,0 -0.500738,0.0150915 -0.773791,0.0477117 -0.273147,0.0327139 -0.543669,0.0853936 -0.806599,0.158226 -0.265554,0.0728329 -0.5058,0.173224 -0.720737,0.2963 -0.217468,0.120545 -0.38938,0.273709 -0.51836,0.454432 -0.128981,0.180817 -0.197221,0.394254 -0.199658,0.640405l0 0.632718c0.288145,-0.125606 0.591662,-0.230966 0.910271,-0.316359 0.318515,-0.0879244 0.652403,-0.133105 1.00138,-0.135636 0.214843,-0.00243714 0.424718,0.0125606 0.629531,0.0452745 0.204813,0.0300893 0.391911,0.0903616 0.561292,0.178286 0.169569,0.0878307 0.305955,0.213437 0.412158,0.379162 0.108734,0.165725 0.169475,0.381693 0.187097,0.64781l0 0.0451808 -1.45638 0.120545c-0.718112,0.0628032 -1.29468,0.193378 -1.72709,0.391723 -0.432404,0.198346 -0.743421,0.456963 -0.93558,0.773416 -0.189628,0.316359 -0.283083,0.68043 -0.280646,1.09484zm2.76128 -0.165725c0,-0.168256 0.0530546,-0.316453 0.159258,-0.441966 0.106203,-0.123075 0.265554,-0.203407 0.47796,-0.236121l1.07712 -0.135449c-0.00759262,0.185785 -0.0404002,0.366508 -0.0935486,0.542263 -0.0555855,0.175849 -0.131418,0.331544 -0.227591,0.472149 -0.0959857,0.140604 -0.209781,0.253556 -0.341293,0.336512 -0.134043,0.0803318 -0.28074,0.122982 -0.444965,0.125419 -0.192253,-0.00496801 -0.33895,-0.0677712 -0.445153,-0.190753 -0.106109,-0.123075 -0.159351,-0.278771 -0.161788,-0.472055zm13.3206 0.919082l0 -3.70642c0.00253087,-0.808567 -0.189534,-1.42873 -0.576571,-1.85569 -0.384318,-0.42678 -0.970918,-0.642748 -1.7598,-0.645279 -0.528578,0 -1.01647,0.118014 -1.46669,0.354041 -0.450027,0.236121 -0.834439,0.59513 -1.15802,1.07731l0 -1.34089c-0.455182,-0.00262461 -0.839594,0.00243714 -1.15052,0.0100298 -0.31111,0.0100298 -0.563916,0.0350573 -0.758606,0.0778009 -0.192253,0.0426499 -0.338856,0.112952 -0.442528,0.210906 -0.101141,0.0979542 -0.169381,0.236027 -0.207344,0.411783 -0.0354322,0.173318 -0.0531484,0.399316 -0.0505237,0.675462l0 6.05676 2.60952 0 0 -3.7666c0.00253087,-0.241089 0.0404002,-0.451995 0.118857,-0.635343 0.0783634,-0.183254 0.181942,-0.333982 0.310923,-0.456963 0.131512,-0.123075 0.275678,-0.215968 0.434935,-0.27624 0.159258,-0.0628032 0.321234,-0.0928924 0.485459,-0.0928924 0.247932,0 0.442528,0.0477117 0.589225,0.140604 0.149134,0.0954233 0.252806,0.231059 0.318609,0.409252 0.0631781,0.180911 0.0960795,0.399316 0.0935486,0.655403l0 4.08296c0.455182,0.00253087 0.8395,-0.00243714 1.15052,-0.0100298 0.310923,-0.0100298 0.563916,-0.0350573 0.758606,-0.0778009 0.192159,-0.0426499 0.338856,-0.112952 0.442528,-0.210906 0.101141,-0.0979542 0.169381,-0.236027 0.207344,-0.411783 0.0353385,-0.175849 0.0530546,-0.399316 0.0505237,-0.675462zm7.25208 -4.08296c0.00243714,-0.364165 -0.00253087,-0.673025 -0.0151852,-0.924144 -0.0101235,-0.25365 -0.0430249,-0.457057 -0.0960795,-0.610128 -0.0531484,-0.155696 -0.141635,-0.26621 -0.265554,-0.336606 -0.123919,-0.0703021 -0.295831,-0.102922 -0.51836,-0.102922l-1.83573 0 0 -1.67235c-0.455182,-0.00243714 -0.8395,0.00253087 -1.15061,0.0100298 -0.311016,0.0100298 -0.563822,0.0352448 -0.758606,0.0778947 -0.192065,0.0426499 -0.338762,0.113046 -0.442341,0.210906 -0.101235,0.0979542 -0.169475,0.236027 -0.207532,0.411876 -0.0353385,0.175755 -0.0529609,0.399128 -0.0505237,0.675462l0 0.286176 -0.803974 0c-0.0658027,0.118014 -0.131605,0.248588 -0.194784,0.391723 -0.0631781,0.145666 -0.118857,0.2963 -0.16685,0.449558 -0.0456495,0.155696 -0.0759262,0.306329 -0.0935486,0.454432l1.25916 0.602723 0 2.69679c0.00262461,0.705645 0.118857,1.27312 0.343918,1.70497 0.22506,0.43203 0.538607,0.748389 0.940735,0.944203 0.404565,0.195908 0.87737,0.291332 1.41588,0.288801 0.336325,0 0.652403,-0.030183 0.950859,-0.0904553 0.295831,-0.0627094 0.558761,-0.158133 0.786446,-0.288707 0.227497,-0.130574 0.407002,-0.298831 0.535983,-0.504769 0.131418,-0.205844 0.197221,-0.454432 0.199752,-0.743233l0 -0.557448c-0.232559,0.0903616 -0.450121,0.153165 -0.649872,0.188316 -0.202282,0.0376819 -0.399503,0.0552105 -0.594193,0.0527734 -0.460244,-0.00253087 -0.796475,-0.125606 -1.00635,-0.369133 -0.2125,-0.24362 -0.316078,-0.592599 -0.313547,-1.04713l0 -2.19961 2.73091 0z"/>
   <path id="_117031432" class="fil3" d="M26.7157 52.8383c0,0 -0.00271835,-0.085956 0.00899866,-0.182973 0.0340262,-0.281114 0.133949,-0.293581 0.21653,-0.293956 0.208375,-0.000937361 0.291332,0.476929 0.273897,0.476929l-0.499426 0z"/>
   <path id="_117031624" class="fil3" d="M14.8336 53.0214c0,0 -0.00262461,-0.0860497 0.00899866,-0.183067 0.0340262,-0.281114 0.133949,-0.293488 0.21653,-0.293863 0.208469,-0.0010311 0.291332,0.476929 0.273991,0.476929l-0.49952 0z"/>
  </g>
  <polygon class="fil5" points="42.2152,53.2666 43.0707,53.2666 43.7189,55.2382 44.3722,53.2666 45.225,53.2666 45.225,56.0957 44.6381,56.0957 44.6381,54.2333 44.0015,56.0957 43.412,56.0957 42.8048,54.2333 42.8048,56.0957 42.2152,56.0957 "/>
  <path id="1" class="fil5" d="M46.3675 54.1297l-0.626532 -0.122794c0.0704895,-0.273709 0.191222,-0.475617 0.363134,-0.60741 0.172756,-0.130949 0.427718,-0.197408 0.76648,-0.197408 0.308579,0 0.537576,0.0400253 0.688491,0.119139 0.150165,0.0791132 0.256649,0.17913 0.317859,0.300987 0.0612097,0.121857 0.0922363,0.344668 0.0922363,0.670213l-0.00749889 0.873901c0,0.248307 0.0108734,0.431936 0.0335575,0.550231 0.0217468,0.117264 0.0637405,0.244557 0.124107,0.379162l-0.683523 0c-0.0176224,-0.0500551 -0.0402128,-0.123638 -0.0661777,-0.220936 -0.0108734,-0.0446184 -0.0193096,-0.0736766 -0.0243714,-0.0882056 -0.118295,0.124575 -0.244089,0.21728 -0.378225,0.280083 -0.134136,0.0617721 -0.277553,0.092705 -0.430249,0.092705 -0.268273,0 -0.480491,-0.0791132 -0.634781,-0.236402 -0.155133,-0.158226 -0.232278,-0.358353 -0.232278,-0.600192 0,-0.159164 0.0352448,-0.301924 0.105547,-0.427436 0.0704895,-0.125513 0.169475,-0.220936 0.296112,-0.287301 0.126637,-0.0664589 0.31036,-0.124575 0.549293,-0.17463 0.322077,-0.0655215 0.546013,-0.127294 0.670119,-0.183723l0 -0.0745202c0,-0.144635 -0.0328076,-0.246432 -0.0981417,-0.308298 -0.0654278,-0.0609284 -0.188691,-0.0918613 -0.370632,-0.0918613 -0.123263,0 -0.218874,0.0264336 -0.287676,0.0791132 -0.0688023,0.051836 -0.1242,0.143697 -0.16685,0.275584zm0.9233 0.60741c-0.0881119,0.0318703 -0.228154,0.0700208 -0.420219,0.114639 -0.191222,0.0445246 -0.316172,0.0882056 -0.375694,0.130012 -0.0897054,0.0700208 -0.135074,0.157289 -0.135074,0.26368 0,0.105547 0.0360884,0.195533 0.108265,0.271928 0.072083,0.0763949 0.163569,0.114545 0.275115,0.114545 0.124856,0 0.243151,-0.0445246 0.356385,-0.13273 0.0838,-0.0673025 0.138354,-0.150071 0.164319,-0.248307 0.018466,-0.0636468 0.0269023,-0.185504 0.0269023,-0.364633l0 -0.149134z"/>
  <polygon id="12" class="fil5" points="48.6224,53.2666 50.3844,53.2666 50.3844,53.8714 49.3134,53.8714 49.3134,56.0957 48.6224,56.0957 "/>
  <path id="123" class="fil5" d="M51.2617 54.1297l-0.626532 -0.122794c0.0704895,-0.273709 0.191222,-0.475617 0.363134,-0.60741 0.172756,-0.130949 0.427718,-0.197408 0.76648,-0.197408 0.308579,0 0.537576,0.0400253 0.688491,0.119139 0.150165,0.0791132 0.256649,0.17913 0.317859,0.300987 0.0612097,0.121857 0.0922363,0.344668 0.0922363,0.670213l-0.00749889 0.873901c0,0.248307 0.0108734,0.431936 0.0335575,0.550231 0.0217468,0.117264 0.0637405,0.244557 0.124107,0.379162l-0.683523 0c-0.0176224,-0.0500551 -0.0402128,-0.123638 -0.0661777,-0.220936 -0.0108734,-0.0446184 -0.0193096,-0.0736766 -0.0243714,-0.0882056 -0.118295,0.124575 -0.244089,0.21728 -0.378225,0.280083 -0.134136,0.0617721 -0.277553,0.092705 -0.430249,0.092705 -0.268273,0 -0.480491,-0.0791132 -0.634781,-0.236402 -0.155133,-0.158226 -0.232278,-0.358353 -0.232278,-0.600192 0,-0.159164 0.0352448,-0.301924 0.105547,-0.427436 0.0704895,-0.125513 0.169475,-0.220936 0.296112,-0.287301 0.126637,-0.0664589 0.31036,-0.124575 0.549293,-0.17463 0.322077,-0.0655215 0.546013,-0.127294 0.670119,-0.183723l0 -0.0745202c0,-0.144635 -0.0328076,-0.246432 -0.0981417,-0.308298 -0.0654278,-0.0609284 -0.188691,-0.0918613 -0.370632,-0.0918613 -0.123263,0 -0.218874,0.0264336 -0.287676,0.0791132 -0.0688023,0.051836 -0.1242,0.143697 -0.16685,0.275584zm0.9233 0.60741c-0.0881119,0.0318703 -0.228154,0.0700208 -0.420219,0.114639 -0.191222,0.0445246 -0.316172,0.0882056 -0.375694,0.130012 -0.0897054,0.0700208 -0.135074,0.157289 -0.135074,0.26368 0,0.105547 0.0360884,0.195533 0.108265,0.271928 0.072083,0.0763949 0.163569,0.114545 0.275115,0.114545 0.124856,0 0.243151,-0.0445246 0.356385,-0.13273 0.0838,-0.0673025 0.138354,-0.150071 0.164319,-0.248307 0.018466,-0.0636468 0.0269023,-0.185504 0.0269023,-0.364633l0 -0.149134z"/>
  <path id="1234" class="fil5" d="M54.3082 54.9344l0 -0.487428c0.119139,0 0.206407,-0.0090924 0.25993,-0.0254025 0.0545544,-0.0172474 0.105734,-0.0582101 0.15354,-0.122794 0.048649,-0.0645842 0.0730204,-0.139104 0.0730204,-0.222811 0,-0.0882056 -0.030183,-0.170975 -0.0897992,-0.246432 -0.060366,-0.0754575 -0.150071,-0.112764 -0.269116,-0.112764 -0.0914864,0 -0.173693,0.0209031 -0.245776,0.0636468 -0.072083,0.0427436 -0.137511,0.143697 -0.196283,0.303799l-0.585382 -0.135542c0.0596161,-0.24915 0.185316,-0.435592 0.378319,-0.560167 0.193659,-0.123638 0.41422,-0.186441 0.661589,-0.186441 0.314485,0 0.557823,0.0782696 0.730485,0.234621 0.172756,0.156446 0.25918,0.352823 0.25918,0.589319 0,0.147259 -0.036932,0.269116 -0.11164,0.365571 -0.0746139,0.097298 -0.191971,0.187285 -0.352166,0.270991 0.192909,0.0563354 0.337169,0.14276 0.433529,0.258243 0.0956108,0.115483 0.143416,0.25918 0.143416,0.431936 0,0.220092 -0.0947672,0.409252 -0.285051,0.568322 -0.189628,0.159164 -0.463806,0.238277 -0.820191,0.238277 -0.623157,0 -1.00382,-0.26368 -1.14311,-0.791132l0.6315 -0.125513c0.101516,0.277365 0.270054,0.416469 0.504019,0.416469 0.129168,0 0.233215,-0.0372132 0.310266,-0.11089 0.0779884,-0.0736766 0.117451,-0.160101 0.117451,-0.260118 0,-0.110046 -0.0410564,-0.196377 -0.121576,-0.25918 -0.0813629,-0.0636468 -0.187847,-0.0945797 -0.318703,-0.0945797l-0.117451 0z"/>
  <polygon id="12345" class="fil5" points="56.0888,53.2666 56.752,53.2666 56.752,55.0436 57.8137,53.2666 58.4914,53.2666 58.4914,56.0957 57.828,56.0957 57.828,54.287 56.752,56.0957 56.0888,56.0957 "/>
  <polygon id="123456" class="fil5" points="59.1716,53.2666 59.8626,53.2666 59.8626,54.3024 60.8496,54.3024 60.8496,53.2666 61.5433,53.2666 61.5433,56.0957 60.8496,56.0957 60.8496,54.9071 59.8626,54.9071 59.8626,56.0957 59.1716,56.0957 "/>
  <path id="1234567" class="fil5" d="M65.7934 56.0957l-1.97577 0 0 0.74567 -0.56026 0 0 -1.35861 0.282708 0c0.118201,-0.141823 0.215499,-0.363696 0.29255,-0.66562 0.0772385,-0.301924 0.123263,-0.819347 0.137511,-1.55049l2.10587 0 0 2.21611 0.280177 0 0 1.35861 -0.562791 0 0 -0.74567zm-0.400815 -0.61294l0.00243714 -1.60139 -0.835282 0c-0.0276521,0.78204 -0.142573,1.31587 -0.343824,1.60139l1.17667 0z"/>
  <path id="12345678" class="fil5" d="M68.3411 55.1955l0.688491 0.124575c-0.0888618,0.273709 -0.228154,0.481897 -0.419281,0.624751 -0.190378,0.143604 -0.429405,0.214562 -0.716144,0.214562 -0.453776,0 -0.789164,-0.160007 -1.00729,-0.481991 -0.171912,-0.257306 -0.258243,-0.582851 -0.258243,-0.974761 0,-0.469243 0.113233,-0.836688 0.339606,-1.10215 0.225623,-0.265554 0.511611,-0.398378 0.857123,-0.398378 0.388255,0 0.694397,0.139198 0.919176,0.417407 0.223842,0.278302 0.331263,0.703864 0.321983,1.27772l-1.73009 0c0.00496801,0.221873 0.060366,0.394629 0.166944,0.517423 0.106484,0.123638 0.239777,0.185504 0.398285,0.185504 0.108171,0 0.19872,-0.0318703 0.272584,-0.0955171 0.0737703,-0.0645842 0.130012,-0.167319 0.16685,-0.309142zm0.0393691 -0.756638c-0.00496801,-0.21728 -0.0561479,-0.381881 -0.15429,-0.494645 -0.0981417,-0.112764 -0.21803,-0.169194 -0.358915,-0.169194 -0.150915,0 -0.275022,0.0599911 -0.373163,0.17913 -0.0981417,0.118295 -0.146791,0.280083 -0.145103,0.484709l1.03147 0z"/>
  <polygon id="123456789" class="fil5" points="69.2535,53.2666 71.6144,53.2666 71.6144,53.8714 70.7791,53.8714 70.7791,56.0957 70.0889,56.0957 70.0889,53.8714 69.2535,53.8714 "/>
  <path id="12345678910" class="fil5" d="M74.2359 54.1032l-0.680899 0.132824c-0.0225904,-0.147353 -0.0747076,-0.258243 -0.155977,-0.332857 -0.0813629,-0.0745202 -0.186254,-0.111827 -0.315422,-0.111827 -0.172662,0 -0.309329,0.0645842 -0.411689,0.192815 -0.10236,0.129075 -0.153446,0.344574 -0.153446,0.646498 0,0.335575 0.0519298,0.572915 0.155977,0.711176 0.103953,0.138167 0.243151,0.20725 0.418438,0.20725 0.131699,0 0.238183,-0.0399316 0.321983,-0.12092 0.0839875,-0.0808942 0.142666,-0.220092 0.176974,-0.416469l0.678555 0.124575c-0.0704895,0.337356 -0.206407,0.592881 -0.405971,0.764793 -0.199658,0.172756 -0.467087,0.258243 -0.803412,0.258243 -0.3816,0 -0.685961,-0.130012 -0.912427,-0.390973 -0.22731,-0.261055 -0.340449,-0.62297 -0.340449,-1.0849 0,-0.466524 0.113983,-0.83022 0.341293,-1.09034 0.228154,-0.260961 0.535889,-0.391067 0.924144,-0.391067 0.317859,0 0.57029,0.0746139 0.758137,0.222811 0.187003,0.14829 0.321983,0.374663 0.40419,0.678368z"/>
  <path id="1234567891011" class="fil5" d="M74.7316 53.2666l0.688491 0 0 1.15586c0.114077,-0.0136855 0.195346,-0.051836 0.243151,-0.114639 0.0470555,-0.0618658 0.104891,-0.198252 0.172006,-0.407377 0.0880182,-0.279146 0.185316,-0.457432 0.290113,-0.535608 0.104797,-0.0781759 0.242308,-0.117358 0.412626,-0.117358 0.0519298,0 0.143416,0.00459307 0.272584,0.0136855l0.00253087 0.495583c-0.182035,0 -0.298643,0.0181848 -0.348886,0.0554918 -0.0511799,0.0390879 -0.105641,0.155508 -0.164319,0.349167 -0.080613,0.261055 -0.196283,0.422 -0.346449,0.481991 0.21728,0.0663651 0.401753,0.270991 0.552668,0.615659 0.00749889,0.0181848 0.0167788,0.0363696 0.0269023,0.0563354l0.385724 0.780259 -0.742202 0 -0.343824 -0.817472c-0.0704895,-0.165538 -0.131699,-0.271928 -0.182879,-0.319265 -0.0519298,-0.0463056 -0.128231,-0.0700208 -0.229747,-0.0700208l0 1.20676 -0.688491 0 0 -2.82905z"/>
  <polygon id="123456789101112" class="fil5" points="77.2601,53.2666 77.9234,53.2666 77.9234,55.0436 78.985,53.2666 79.6627,53.2666 79.6627,56.0957 78.9994,56.0957 78.9994,54.287 77.9234,56.0957 77.2601,56.0957 "/>
  <polygon id="12345678910111213" class="fil5" points="80.0385,56.0957 80.9793,54.638 80.0779,53.2666 80.9207,53.2666 81.3828,54.0442 81.8692,53.2666 82.6802,53.2666 81.7954,54.6061 82.7606,56.0957 81.9136,56.0957 81.3828,55.2191 80.8469,56.0957 "/>
  <polygon id="1234567891011121314" class="fil5" points="84.5495,53.2666 85.2127,53.2666 85.2127,55.0436 86.2744,53.2666 86.9521,53.2666 86.9521,56.0957 86.2887,56.0957 86.2887,54.287 85.2127,56.0957 84.5495,56.0957 "/>
  <polygon id="123456789101112131415" class="fil5" points="87.6323,53.2666 89.3942,53.2666 89.3942,53.8714 88.3233,53.8714 88.3233,56.0957 87.6323,56.0957 "/>
  <path id="12345678910111213141516" class="fil5" d="M89.7355 53.2666l0.644061 0 0 0.415626c0.0830502,-0.14276 0.196283,-0.258337 0.338762,-0.346542 0.142666,-0.0890493 0.301174,-0.133668 0.474679,-0.133668 0.302861,0 0.56026,0.129168 0.770792,0.386474 0.211375,0.257399 0.317015,0.616596 0.317015,1.07675 0,0.471961 -0.106578,0.839313 -0.318796,1.10121 -0.212968,0.261899 -0.471305,0.392848 -0.773979,0.392848 -0.144166,0 -0.275115,-0.0309329 -0.392473,-0.092705 -0.116608,-0.0628032 -0.239871,-0.169194 -0.369789,-0.320109l0 1.42582 -0.690272 0 0 -3.9057zm0.683523 1.36677c0,0.31739 0.0578352,0.552949 0.174443,0.703864 0.115764,0.151852 0.257399,0.228247 0.425093,0.228247 0.160195,0 0.293581,-0.0700208 0.400066,-0.209125 0.106578,-0.139104 0.160195,-0.368289 0.160195,-0.685679 0,-0.297331 -0.0553043,-0.517423 -0.165163,-0.661121 -0.109859,-0.143697 -0.245776,-0.215499 -0.407564,-0.215499 -0.168631,0 -0.308673,0.0700208 -0.420125,0.211844 -0.11164,0.140979 -0.166944,0.350104 -0.166944,0.627469z"/>
  <path id="1234567891011121314151617" class="fil5" d="M92.436 53.2666l0.73461 0 0.624001 2.00876 0.609659 -2.00876 0.714456 0 -0.920769 2.72266 -0.165257 0.492864c-0.0602723,0.164601 -0.118201,0.290957 -0.172662,0.378319 -0.055398,0.0872683 -0.118295,0.157289 -0.189628,0.211844 -0.0712394,0.0537108 -0.158414,0.0964544 -0.262461,0.12645 -0.103953,0.0299955 -0.221405,0.045462 -0.353104,0.045462 -0.132449,0 -0.262461,-0.0154665 -0.390692,-0.045462l-0.0613034 -0.5866c0.108265,0.0237152 0.205469,0.0345886 0.292738,0.0345886 0.160101,0 0.27924,-0.0508987 0.356385,-0.15279 0.0763012,-0.101797 0.135917,-0.231903 0.176974,-0.39013l-0.992946 -2.8372z"/>
  <polygon id="123456789101112131415161718" class="fil5" points="95.544,53.2666 96.1779,53.2666 96.1779,55.491 96.9788,55.491 96.9788,53.2666 97.6153,53.2666 97.6153,55.491 98.4137,55.491 98.4137,53.2666 99.0503,53.2666 99.0503,56.0957 95.544,56.0957 "/>
  <path id="12345678910111213141516171819" class="fil5" d="M101.266 55.1955l0.688491 0.124575c-0.0888618,0.273709 -0.228154,0.481897 -0.419281,0.624751 -0.190378,0.143604 -0.429405,0.214562 -0.716144,0.214562 -0.453776,0 -0.789164,-0.160007 -1.00729,-0.481991 -0.171912,-0.257306 -0.258243,-0.582851 -0.258243,-0.974761 0,-0.469243 0.113233,-0.836688 0.339606,-1.10215 0.225623,-0.265554 0.511611,-0.398378 0.857123,-0.398378 0.388255,0 0.694397,0.139198 0.919176,0.417407 0.223842,0.278302 0.331263,0.703864 0.321983,1.27772l-1.73009 0c0.00496801,0.221873 0.060366,0.394629 0.166944,0.517423 0.106484,0.123638 0.239777,0.185504 0.398285,0.185504 0.108171,0 0.19872,-0.0318703 0.272584,-0.0955171 0.0737703,-0.0645842 0.130012,-0.167319 0.16685,-0.309142zm0.0393691 -0.756638c-0.00496801,-0.21728 -0.0561479,-0.381881 -0.15429,-0.494645 -0.0981417,-0.112764 -0.21803,-0.169194 -0.358915,-0.169194 -0.150915,0 -0.275022,0.0599911 -0.373163,0.17913 -0.0981417,0.118295 -0.146791,0.280083 -0.145103,0.484709l1.03147 0z"/>
  <path id="1234567891011121314151617181920" class="fil5" d="M102.526 53.2666l0.688491 0 0 1.15586c0.114077,-0.0136855 0.195346,-0.051836 0.243151,-0.114639 0.0470555,-0.0618658 0.104891,-0.198252 0.172006,-0.407377 0.0880182,-0.279146 0.185316,-0.457432 0.290113,-0.535608 0.104797,-0.0781759 0.242308,-0.117358 0.412626,-0.117358 0.0519298,0 0.143416,0.00459307 0.272584,0.0136855l0.00253087 0.495583c-0.182035,0 -0.298643,0.0181848 -0.348886,0.0554918 -0.0511799,0.0390879 -0.105641,0.155508 -0.164319,0.349167 -0.080613,0.261055 -0.196283,0.422 -0.346449,0.481991 0.21728,0.0663651 0.401753,0.270991 0.552668,0.615659 0.00749889,0.0181848 0.0167788,0.0363696 0.0269023,0.0563354l0.385724 0.780259 -0.742202 0 -0.343824 -0.817472c-0.0704895,-0.165538 -0.131699,-0.271928 -0.182879,-0.319265 -0.0519298,-0.0463056 -0.128231,-0.0700208 -0.229747,-0.0700208l0 1.20676 -0.688491 0 0 -2.82905z"/>
 </g>
</svg>
